<?xml version="1.0" encoding="UTF-8"?>
<svg width="128px" height="131px" viewBox="0 0 128 131" version="1.1" xmlns="http://www.w3.org/2000/svg" xmlns:xlink="http://www.w3.org/1999/xlink">
    <!-- Generator: Sketch 61.2 (89653) - https://sketch.com -->
    <title>hd su dung</title>
    <desc>Created with Sketch.</desc>
    <g id="Page-1" stroke="none" stroke-width="1" fill="none" fill-rule="evenodd">
        <g id="05-1.-Dashboard" transform="translate(-494.000000, -220.000000)">
            <g id="hd-su-dung" transform="translate(494.000000, 220.000000)">
                <path d="M109.662093,111.296962 C98.1387933,123.10299 82.0777802,130.459901 64.2982524,130.549569 C29.0438129,130.725431 0.155044175,102.008383 0.13027316,66.7536831 C0.10553427,31.4739674 28.6980253,2.86636289 63.9720082,2.86636289 C99.0620227,2.86636289 127.436931,30.9251892 127.810079,66.0131191 C127.928121,77.1127186 125.213154,87.5681681 120.343725,96.701182 C114.444489,96.701182 109.662093,101.483578 109.662093,107.382814 L109.662093,111.296962 Z" id="Path" fill="#DBF4F7"></path>
                <path d="M127.813727,66.7080818 C127.813727,67.9880432 127.775943,69.2591448 127.701678,70.5206051 C120.459161,91.1451284 100.81337,105.932173 77.7141336,105.932173 C48.461858,105.932173 24.7481772,82.2184926 24.7481772,52.966217 C24.7481772,29.8669802 39.5352222,10.2211895 60.1597455,2.9786722 C61.4209452,2.90414677 62.6920469,2.86636289 63.9720082,2.86636289 C99.2308775,2.86636289 127.813727,31.4492125 127.813727,66.7080818 L127.813727,66.7080818 Z" id="Path" fill="#B4E0E5"></path>
                <path d="M14.3974802,67.5638215 C13.2337369,67.5638215 12.2904429,66.6202669 12.2904429,65.4565236 L12.2904429,2.1070373 C12.2904429,0.94329397 13.2339975,0 14.3974802,0 L51.2831408,0 C51.4965546,0 51.6982423,0.0969351814 51.8316584,0.263705386 L62.7040335,13.8541742 C62.8035744,13.9787307 62.8580353,14.1335143 62.8580353,14.2929883 L62.8580353,65.4567842 C62.8580353,66.6205275 61.9147414,67.5638215 60.750998,67.5638215 L14.3974802,67.5638215 L14.3974802,67.5638215 Z" id="Path" fill="#1563E6"></path>
                <path d="M14.3974802,67.5635609 C13.2337369,67.5635609 12.2904429,66.6202669 12.2904429,65.4565236 L12.2904429,2.1070373 C12.2907035,0.94329397 13.2339975,0 14.3974802,0 L20.2870742,0 C19.1233309,0 18.1800369,0.94329397 18.1800369,2.1070373 L18.1800369,67.5635609 L14.3974802,67.5635609 Z" id="Path" fill="#115AD5"></path>
                <path d="M27.1512316,20.8462756 L27.1512316,19.5433834 C27.1512316,18.8239263 27.7346668,18.2404911 28.4541238,18.2404911 L46.694615,18.2404911 C47.4140721,18.2404911 47.9975072,18.8239263 47.9975072,19.5433834 L47.9975072,20.8462756 C47.9975072,21.5657327 47.4140721,22.1491678 46.694615,22.1491678 L28.4541238,22.1491678 C27.7344062,22.1491678 27.1512316,21.5657327 27.1512316,20.8462756 Z M51.7584359,29.9665211 L23.3900424,29.9665211 C22.6705853,29.9665211 22.0871501,30.5499563 22.0871501,31.2694134 L22.0871501,32.5723056 C22.0871501,33.2917627 22.6705853,33.8751978 23.3900424,33.8751978 L51.7581753,33.8751978 C52.4776324,33.8751978 53.0610676,33.2917627 53.0610676,32.5723056 L53.0610676,31.2694134 C53.0610676,30.5499563 52.477893,29.9665211 51.7584359,29.9665211 Z M48.4540406,45.6012278 L26.6944376,45.6012278 C25.9749805,45.6012278 25.3915454,46.184663 25.3915454,46.90412 L25.3915454,48.2070123 C25.3915454,48.9264694 25.9749805,49.5099045 26.6944376,49.5099045 L48.4540406,49.5099045 C49.1734977,49.5099045 49.7569329,48.9264694 49.7569329,48.2070123 L49.7569329,46.90412 C49.7569329,46.184663 49.1734977,45.6012278 48.4540406,45.6012278 Z M51.7584359,37.7838745 L23.3900424,37.7838745 C22.6705853,37.7838745 22.0871501,38.3673096 22.0871501,39.0867667 L22.0871501,40.3896589 C22.0871501,41.109116 22.6705853,41.6925512 23.3900424,41.6925512 L51.7581753,41.6925512 C52.4776324,41.6925512 53.0610676,41.109116 53.0610676,40.3896589 L53.0610676,39.0867667 C53.0610676,38.3673096 52.477893,37.7838745 51.7584359,37.7838745 Z" id="Shape" fill="#458AFF"></path>
                <path d="M51.8316584,0.263705386 L62.7040335,13.8544347 C62.750677,13.9128043 62.7874186,13.9776884 62.8132158,14.0467416 L53.0253683,14.0467416 C52.2496263,14.0467416 51.6208505,13.4179659 51.6208505,12.6422238 L51.6208505,0.0865120436 C51.7011086,0.130549801 51.7730283,0.190222265 51.8316584,0.263705386 Z" id="Path" fill="#458AFF" fill-rule="nonzero"></path>
                <path d="M43.1405856,89.4305222 C41.9768422,89.4305222 41.0335483,88.4869677 41.0335483,87.3232243 L41.0335483,23.9737381 C41.0335483,22.8099947 41.9768422,21.8667008 43.1405856,21.8667008 L80.0262462,21.8667008 C80.2396599,21.8667008 80.4413476,21.9636359 80.5747638,22.1304062 L91.4471388,35.7208749 C91.5466798,35.8454314 91.6011407,36.000215 91.6011407,36.159689 L91.6011407,87.3234849 C91.6011407,88.4872283 90.6578467,89.4305222 89.4941034,89.4305222 L43.1405856,89.4305222 L43.1405856,89.4305222 Z" id="Path" fill="#F3D373" fill-rule="nonzero"></path>
                <path d="M43.1405856,89.4302616 C41.9768422,89.4302616 41.0335483,88.4869677 41.0335483,87.3232243 L41.0335483,23.9737381 C41.0335483,22.8099947 41.9768422,21.8667008 43.1405856,21.8667008 L49.0301796,21.8667008 C47.8664362,21.8667008 46.9231423,22.8099947 46.9231423,23.9737381 L46.9231423,89.4302616 L43.1405856,89.4302616 Z" id="Path" fill="#F1CA50" fill-rule="nonzero"></path>
                <path d="M57.0492206,44.2983356 L57.0492206,42.9954434 C57.0492206,42.2759863 57.6326558,41.6925512 58.3521129,41.6925512 L76.592604,41.6925512 C77.3120611,41.6925512 77.8954962,42.2759863 77.8954962,42.9954434 L77.8954962,44.2983356 C77.8954962,45.0177927 77.3120611,45.6012278 76.592604,45.6012278 L58.3521129,45.6012278 C57.6326558,45.6012278 57.0492206,45.0177927 57.0492206,44.2983356 Z M81.6564249,53.4185812 L53.2882919,53.4185812 C52.5688349,53.4185812 51.9853997,54.0020163 51.9853997,54.7214734 L51.9853997,56.0243656 C51.9853997,56.7438227 52.5688349,57.3272578 53.2882919,57.3272578 L81.6564249,57.3272578 C82.375882,57.3272578 82.9593171,56.7438227 82.9593171,56.0243656 L82.9593171,54.7214734 C82.9593171,54.0020163 82.3761426,53.4185812 81.6564249,53.4185812 Z M78.3522902,69.0532878 L56.5926872,69.0532878 C55.8732301,69.0532878 55.289795,69.636723 55.289795,70.3561801 L55.289795,71.6590723 C55.289795,72.3785294 55.8732301,72.9619645 56.5926872,72.9619645 L78.3522902,72.9619645 C79.0717473,72.9619645 79.6551824,72.3785294 79.6551824,71.6590723 L79.6551824,70.3561801 C79.6551824,69.636723 79.0717473,69.0532878 78.3522902,69.0532878 Z M81.6564249,61.2359345 L53.2882919,61.2359345 C52.5688349,61.2359345 51.9853997,61.8193696 51.9853997,62.5388267 L51.9853997,63.841719 C51.9853997,64.561176 52.5688349,65.1446112 53.2882919,65.1446112 L81.6564249,65.1446112 C82.375882,65.1446112 82.9593171,64.561176 82.9593171,63.841719 L82.9593171,62.5388267 C82.9593171,61.8193696 82.3761426,61.2359345 81.6564249,61.2359345 Z" id="Shape" fill="#ECB700" fill-rule="nonzero"></path>
                <path d="M80.5745032,22.1304062 L91.4468782,35.7211355 C91.4935218,35.7795051 91.5302633,35.8443891 91.5560606,35.9134424 L81.7682131,35.9134424 C80.992471,35.9134424 80.3636952,35.2846666 80.3636952,34.508664 L80.3636952,21.9532128 C80.4439534,21.9972506 80.5158731,22.0571836 80.5745032,22.1304062 L80.5745032,22.1304062 Z" id="Path" fill="#F9EECF" fill-rule="nonzero"></path>
                <path d="M109.662093,111.297223 L71.8834303,111.297223 C70.719687,111.297223 69.776393,110.353929 69.776393,109.190186 L69.776393,45.8404388 C69.776393,44.6766955 70.719687,43.7334015 71.8834303,43.7334015 L108.769091,43.7334015 C108.982505,43.7334015 109.184192,43.8305973 109.317609,43.9971069 L120.189984,57.5878363 C120.289525,57.7123928 120.343985,57.8671764 120.343985,58.0266504 L120.343985,96.7014426 C117.481792,102.069359 113.875126,106.980741 109.662093,111.297223 Z" id="Path" fill="#458AFF"></path>
                <path d="M71.8834303,111.297223 C70.719687,111.297223 69.776393,110.353929 69.776393,109.190186 L69.776393,45.8404388 C69.776393,44.6766955 70.719687,43.7334015 71.8834303,43.7334015 L77.7730243,43.7334015 C76.609281,43.7334015 75.665987,44.6766955 75.665987,45.8404388 L75.665987,111.297223 L71.8834303,111.297223 L71.8834303,111.297223 Z" id="Path" fill="#1563E6" fill-rule="nonzero"></path>
                <path d="M84.6369212,64.48639 L84.6369212,63.1834978 C84.6369212,62.4640407 85.2203563,61.8806056 85.9398134,61.8806056 L104.180305,61.8806056 C104.899762,61.8806056 105.483197,62.4640407 105.483197,63.1834978 L105.483197,64.48639 C105.483197,65.2058471 104.899762,65.7892822 104.180305,65.7892822 L85.9398134,65.7892822 C85.2203563,65.7892822 84.6369212,65.2061077 84.6369212,64.48639 Z M109.244386,73.6066356 L80.8759925,73.6066356 C80.1565354,73.6066356 79.5731002,74.1900707 79.5731002,74.9095278 L79.5731002,76.21242 C79.5731002,76.9318771 80.1565354,77.5153123 80.8759925,77.5153123 L109.244125,77.5153123 C109.963583,77.5153123 110.547018,76.9318771 110.547018,76.21242 L110.547018,74.9095278 C110.547018,74.1900707 109.963843,73.6066356 109.244386,73.6066356 L109.244386,73.6066356 Z M105.939991,89.2413423 L84.1803877,89.2413423 C83.4609306,89.2413423 82.8774955,89.8247774 82.8774955,90.5442345 L82.8774955,91.8471267 C82.8774955,92.5665838 83.4609306,93.1500189 84.1803877,93.1500189 L105.939991,93.1500189 C106.659448,93.1500189 107.242883,92.5665838 107.242883,91.8471267 L107.242883,90.5442345 C107.242883,89.8247774 106.659448,89.2413423 105.939991,89.2413423 Z M109.244386,81.4239889 L80.8759925,81.4239889 C80.1565354,81.4239889 79.5731002,82.0074241 79.5731002,82.7268812 L79.5731002,84.0297734 C79.5731002,84.7492305 80.1565354,85.3326656 80.8759925,85.3326656 L109.244125,85.3326656 C109.963583,85.3326656 110.547018,84.7492305 110.547018,84.0297734 L110.547018,82.7268812 C110.547018,82.0074241 109.963843,81.4239889 109.244386,81.4239889 L109.244386,81.4239889 Z" id="Shape" fill="#63BCFA" fill-rule="nonzero"></path>
                <path d="M109.317609,43.9971069 L120.189984,57.5878363 C120.236627,57.6462059 120.273369,57.7110899 120.299166,57.7801432 L110.511318,57.7801432 C109.735576,57.7801432 109.106801,57.1513674 109.106801,56.3756254 L109.106801,43.8201742 C109.187059,43.8639513 109.258978,43.9238844 109.317609,43.9971069 L109.317609,43.9971069 Z" id="Path" fill="#63BCFA" fill-rule="nonzero"></path>
                <path d="M80.6490286,110.745839 C80.6490286,112.192571 79.8628635,113.455594 78.6946903,114.131535 L78.6946903,128.843794 C77.4063905,129.147889 76.1029771,129.412897 74.7860136,129.637516 L74.7860136,114.131535 C73.6178405,113.455594 72.8316753,112.192571 72.8316753,110.745839 C72.8316753,108.587207 74.5817201,106.837162 76.740352,106.837162 C78.8989838,106.837162 80.6490286,108.587207 80.6490286,110.745839 L80.6490286,110.745839 Z M36.6342024,103.789958 L21.3848912,88.5406468 L21.3848912,69.8331991 C22.5530644,69.1572586 23.3392296,67.8942349 23.3392296,66.4475034 C23.3392296,64.2888716 21.5891847,62.5388267 19.4305529,62.5388267 C17.2719211,62.5388267 15.5218762,64.2888716 15.5218762,66.4475034 C15.5218762,67.8942349 16.3077808,69.1572586 17.4762146,69.8331991 L17.4762146,89.3348899 C17.4762146,89.9488127 17.7594633,90.4965486 18.2021861,90.854844 C18.2595134,90.9324964 18.3233551,91.0067612 18.3934507,91.0771174 L33.297756,105.981423 L33.297756,122.711601 C34.5748509,123.412557 35.8782643,124.071039 37.2064326,124.685222 L37.2064326,105.290108 C37.2064326,105.270044 37.2061721,105.25024 37.2053903,105.230436 C37.221025,104.710842 37.0305422,104.186298 36.6342024,103.789958 L36.6342024,103.789958 Z M65.7447233,119.384536 L50.4954122,104.135224 L50.4954122,93.0981638 C51.6635853,92.4222233 52.4497505,91.1591996 52.4497505,89.7124681 C52.4497505,87.5538363 50.6997057,85.8037914 48.5410738,85.8037914 C46.382442,85.8037914 44.6323972,87.5538363 44.6323972,89.7124681 C44.6323972,91.1591996 45.4185623,92.4222233 46.5867355,93.0981638 L46.5867355,104.929468 C46.5867355,105.54339 46.8699843,106.091126 47.312707,106.449422 C47.3700343,106.526813 47.433876,106.601339 47.5039716,106.671434 L62.4082769,121.57574 L62.4082769,130.530518 C62.9278703,130.543026 63.4490272,130.54928 63.9717476,130.54928 C64.7568705,130.54928 65.5386058,130.534948 66.3169536,130.506805 L66.3169536,120.884165 C66.3169536,120.864361 66.316693,120.844557 66.3159113,120.824753 C66.3318066,120.30568 66.1413237,119.781136 65.7447233,119.384536 Z" id="Shape" fill="#122894"></path>
                <path d="M72.8316753,110.745839 C72.8316753,108.524929 74.6841275,106.736579 76.9279684,106.841592 C78.9060194,106.934098 80.5369799,108.553071 80.6430353,110.530341 C80.7253781,112.066451 79.9204513,113.42224 78.6944297,114.131535 L78.6944297,121.381869 C78.6944297,122.461185 77.8194073,123.336208 76.7400914,123.336208 C75.6607755,123.336208 74.7857531,122.461185 74.7857531,121.381869 L74.7857531,114.131535 C73.6178405,113.455594 72.8316753,112.192571 72.8316753,110.745839 Z M58.4599923,112.100065 L50.4954122,104.135485 L50.4954122,93.0984244 C51.7214338,92.3891299 52.5263606,91.0333402 52.4440178,89.4972303 C52.3379624,87.5197005 50.7070019,85.9009872 48.7289509,85.8084818 C46.4848493,85.7034687 44.6326577,87.4918186 44.6326577,89.7127287 C44.6326577,91.1594602 45.4188229,92.4224839 46.5869961,93.0984244 L46.5869961,104.929728 C46.5869961,105.543651 46.8702448,106.091387 47.3129676,106.449682 C47.3702949,106.527074 47.4341366,106.601599 47.5042322,106.671695 L55.6962973,114.86376 C56.0629312,115.230394 56.5598543,115.436251 57.0781448,115.436251 C58.81933,115.436251 59.6912255,113.331038 58.4599923,112.100065 Z M17.4762146,69.8331991 L17.4762146,89.3348899 C17.4762146,89.9488127 17.7594633,90.4965486 18.2021861,90.854844 C18.2595134,90.9324964 18.3233551,91.0067612 18.3934507,91.0771174 L26.8927378,99.5764045 C27.2593717,99.9430384 27.7562948,100.148895 28.2745853,100.148895 C30.0157705,100.148895 30.8876659,98.0436821 29.6564328,96.8127096 L21.3843701,88.5406468 L21.3843701,69.8331991 C22.6103916,69.1239046 23.4153185,67.768115 23.3329757,66.2317444 C23.2266597,64.2542146 21.5956992,62.6355013 19.6176482,62.542996 C17.3738072,62.4382434 15.5216156,64.2263327 15.5216156,66.4472428 C15.5218762,67.8942349 16.3077808,69.1572586 17.4762146,69.8331991 L17.4762146,69.8331991 Z" id="Shape" fill="#1D3BA8"></path>
            </g>
        </g>
    </g>
</svg>