<?xml version="1.0" encoding="UTF-8"?>
<svg width="128px" height="128px" viewBox="0 0 128 128" version="1.1" xmlns="http://www.w3.org/2000/svg" xmlns:xlink="http://www.w3.org/1999/xlink">
    <!-- Generator: Sketch 61.2 (89653) - https://sketch.com -->
    <title>mau van ban tb</title>
    <desc>Created with Sketch.</desc>
    <g id="Page-1" stroke="none" stroke-width="1" fill="none" fill-rule="evenodd">
        <g id="05-1.-Dashboard" transform="translate(-1074.000000, -220.000000)">
            <g id="mau-van-ban-tb" transform="translate(1074.000000, 220.000000)">
                <circle id="Oval" fill="#DBF4F7" cx="64" cy="64" r="64"></circle>
                <path d="M66.8395,96.45975 L74.53875,109.3715 C76.41725,112.52525 74.7425,116.5975 71.18925,117.516 L63.3955,119.531 L48.049,110.49 L40.0815,89.4795 L66.8395,96.45975 Z" id="Path" fill="#ECB700" fill-rule="nonzero"></path>
                <path d="M70.1865,127.702 C68.1515,127.9005 66.088,127.99975 64.00075,127.99975 C57.49875,127.99975 51.22175,127.0305 45.31025,125.2255 C42.60125,124.4 39.9655,123.3995 37.424,122.2345 L21.9855,95.903 L28.5265,96.59525 L53.194,99.205 L70.1865,127.702 Z" id="Path" fill="#1D3BA8"></path>
                <path d="M45.31025,125.2255 C42.60125,124.4 39.9655,123.3995 37.424,122.2345 L21.9855,95.903 L28.5265,96.59525 L45.31025,125.2255 Z" id="Path" fill="#122894"></path>
                <path d="M118.20225,98.0425 C116.823,100.2395 115.313,102.34475 113.67775,104.3485 C96.14425,96.61875 76.44025,94.968 57.74175,99.80325 L24.731,108.33725 C22.61775,108.88325 20.4965,109.07125 18.43025,108.9355 C13.20325,103.63775 8.8955,97.4285 5.76075,90.5715 C2.06175,82.47875 0.00075,73.4795 0.00075,63.99975 C0.00075,59.107 0.54925,54.34225 1.589,49.76575 C3.64225,48.19575 6.03775,47.002 8.697,46.315 L41.70525,37.78075 C60.9785,32.7965 77.84575,21.27125 89.48325,5.274 C89.682,5.0005 89.87925,4.726 90.07525,4.44975 C91.21325,2.845 93.71125,3.314 94.20375,5.2185 L94.909,7.94625 L113.84775,81.19625 L118.20225,98.0425 Z" id="Path" fill="#1563E6"></path>
                <path d="M110.96375,76.91475 L100.56175,36.6835 C100.76025,36.694 100.95875,36.707 101.15725,36.72275 C109.51375,37.368 116.9875,42.84325 119.93675,51.0065 C120.16675,51.6465 120.3705,52.30225 120.5455,52.97625 C122.988,62.4245 118.837,72.02725 110.96375,76.91475 Z" id="Path" fill="#F1CA50" fill-rule="nonzero"></path>
                <path d="M119.93675,51.0065 C119.9785,58.57425 116.042,65.63775 109.6575,69.6005 L101.15725,36.72275 C109.514,37.368 116.9875,42.84325 119.93675,51.0065 Z" id="Path" fill="#F3D373" fill-rule="nonzero"></path>
                <path d="M118.20225,98.0425 C116.823,100.2395 115.313,102.34475 113.67775,104.3485 C96.14425,96.61875 76.44025,94.968 57.74175,99.80325 L24.731,108.33725 C22.61775,108.88325 20.4965,109.07125 18.43025,108.9355 C13.20325,103.63775 8.8955,97.4285 5.76075,90.5715 L5.76075,90.56625 C5.76075,90.56625 9.1435,96.462 19.5925,95.156 C30.0415,93.85 67.65775,78.43775 87.51075,82.09475 C97.79325,83.989 113.8475,81.19625 113.8475,81.19625 L118.20225,98.0425 Z" id="Path" fill="#115AD5"></path>
                <path d="M118.20225,98.0425 C116.823,100.2395 115.313,102.34475 113.67775,104.3485 L113.67525,104.351 C110.76525,103.06575 107.795,101.95025 104.7805,101.00475 L100.089,82.85475 L82.26825,13.9335 C84.85175,11.222 87.26275,8.33025 89.48325,5.274 C89.6825,5.0005 89.88025,4.7255 90.07625,4.44925 C91.2145,2.8455 93.7115,3.3155 94.2035,5.21925 L94.9085,7.94625 L113.84725,81.19625 L118.20225,98.0425 Z" id="Path" fill="#1D3BA8"></path>
                <path d="M118.20225,98.0425 C116.823,100.2395 115.313,102.34475 113.67775,104.3485 L113.67525,104.351 C110.76525,103.06575 107.795,101.95025 104.7805,101.00475 L100.089,82.85475 C107.40325,82.49175 113.84775,81.196 113.84775,81.196 L118.20225,98.0425 Z" id="Path" fill="#122894"></path>
            </g>
        </g>
    </g>
</svg>